<?xml version="1.0" encoding="UTF-8" standalone="no"?>
<svg
   xmlns:dc="http://purl.org/dc/elements/1.1/"
   xmlns:cc="http://creativecommons.org/ns#"
   xmlns:rdf="http://www.w3.org/1999/02/22-rdf-syntax-ns#"
   xmlns:svg="http://www.w3.org/2000/svg"
   xmlns="http://www.w3.org/2000/svg"
   id="svg12"
   version="1.1"
   height="43.696102"
   width="200.85699">
  <metadata
     id="metadata18">
    <rdf:RDF>
      <cc:Work
         rdf:about="">
        <dc:format>image/svg+xml</dc:format>
        <dc:type
           rdf:resource="http://purl.org/dc/dcmitype/StillImage" />
      </cc:Work>
    </rdf:RDF>
  </metadata>
  <defs
     id="defs16" />
  <g
     transform="translate(0,1.016689e-4)"
     style="fill:none;fill-rule:evenodd"
     id="g10">
    <path
       style="fill:#ffffff"
       id="path2"
       d="M 66.83,15.01 H 60.877 V 31.184 H 56.872 V 15.01 H 50.998 V 11.77 H 66.83 Z m 6.097,16.174 H 69.056 V 16.756 h 3.871 z M 68.83,13.022 c 0,-0.578 0.193,-1.053 0.58,-1.426 0.388,-0.374 0.915,-0.56 1.582,-0.56 0.659,0 1.184,0.186 1.576,0.56 0.391,0.373 0.587,0.848 0.587,1.426 0,0.587 -0.198,1.067 -0.594,1.44 -0.396,0.374 -0.919,0.56 -1.569,0.56 -0.65,0 -1.172,-0.186 -1.568,-0.56 -0.396,-0.373 -0.594,-0.853 -0.594,-1.44 z m 10.889,3.734 0.12,1.614 c 1.024,-1.254 2.407,-1.88 4.152,-1.88 1.86,0 3.137,0.733 3.831,2.2 1.015,-1.467 2.46,-2.2 4.339,-2.2 1.566,0 2.732,0.455 3.497,1.366 0.766,0.911 1.149,2.283 1.149,4.114 v 9.214 h -3.872 v -9.2 c 0,-0.818 -0.16,-1.416 -0.48,-1.794 -0.32,-0.378 -0.886,-0.567 -1.696,-0.567 -1.157,0 -1.958,0.551 -2.403,1.654 l 0.013,9.907 H 84.51 v -9.187 c 0,-0.836 -0.164,-1.44 -0.494,-1.814 -0.329,-0.373 -0.89,-0.56 -1.682,-0.56 -1.094,0 -1.886,0.453 -2.376,1.36 V 31.184 H 76.1 V 16.756 h 3.618 z m 26.695,14.695 c -2.118,0 -3.842,-0.649 -5.173,-1.947 -1.33,-1.298 -1.996,-3.027 -1.996,-5.187 v -0.373 c 0,-1.45 0.28,-2.745 0.841,-3.888 0.561,-1.142 1.355,-2.022 2.383,-2.64 1.028,-0.618 2.2,-0.927 3.518,-0.927 1.976,0 3.53,0.623 4.666,1.867 1.134,1.245 1.702,3.01 1.702,5.294 v 1.574 h -9.198 c 0.124,0.942 0.5,1.698 1.128,2.267 0.627,0.569 1.422,0.853 2.383,0.853 1.486,0 2.647,-0.538 3.484,-1.613 l 1.896,2.12 c -0.579,0.818 -1.362,1.456 -2.35,1.913 -0.988,0.458 -2.082,0.687 -3.284,0.687 z m -0.44,-11.841 c -0.766,0 -1.387,0.258 -1.863,0.773 -0.476,0.516 -0.78,1.254 -0.914,2.214 h 5.366 V 22.29 c -0.017,-0.853 -0.249,-1.513 -0.694,-1.98 -0.445,-0.467 -1.077,-0.7 -1.895,-0.7 z m 15.61,11.574 V 11.77 h 5.98 c 1.71,0 3.238,0.384 4.586,1.153 1.348,0.77 2.4,1.863 3.157,3.28 0.757,1.419 1.135,3.03 1.135,4.835 v 0.893 c 0,1.805 -0.372,3.41 -1.115,4.814 -0.743,1.405 -1.79,2.494 -3.144,3.267 -1.352,0.773 -2.879,1.165 -4.578,1.173 h -6.021 z m 4.005,-16.175 v 12.962 h 1.935 c 1.567,0 2.764,-0.511 3.592,-1.534 0.827,-1.022 1.25,-2.484 1.268,-4.387 v -1.027 c 0,-1.973 -0.41,-3.469 -1.228,-4.487 -0.82,-1.018 -2.016,-1.527 -3.592,-1.527 z m 12.905,8.828 c 0,-1.431 0.276,-2.707 0.827,-3.827 0.552,-1.12 1.346,-1.987 2.383,-2.6 1.037,-0.614 2.24,-0.92 3.611,-0.92 1.95,0 3.54,0.595 4.773,1.786 1.232,1.192 1.92,2.81 2.062,4.854 l 0.027,0.987 c 0,2.214 -0.618,3.99 -1.856,5.327 -1.237,1.338 -2.896,2.007 -4.979,2.007 -2.083,0 -3.745,-0.667 -4.986,-2 -1.242,-1.334 -1.862,-3.147 -1.862,-5.44 z m 3.858,0.28 c 0,1.369 0.258,2.416 0.774,3.14 0.516,0.725 1.255,1.087 2.216,1.087 0.935,0 1.664,-0.358 2.19,-1.073 0.524,-0.716 0.787,-1.86 0.787,-3.434 0,-1.342 -0.263,-2.383 -0.788,-3.12 -0.525,-0.738 -1.263,-1.107 -2.216,-1.107 -0.943,0 -1.673,0.366 -2.189,1.1 -0.516,0.733 -0.774,1.869 -0.774,3.407 z m 18.204,4.227 c 0.712,0 1.29,-0.195 1.736,-0.587 0.445,-0.39 0.676,-0.91 0.694,-1.56 h 3.618 a 4.94,4.94 0 0 1 -0.801,2.687 c -0.525,0.814 -1.244,1.445 -2.156,1.894 -0.912,0.449 -1.92,0.673 -3.024,0.673 -2.065,0 -3.693,-0.655 -4.886,-1.967 -1.192,-1.311 -1.789,-3.122 -1.789,-5.434 v -0.253 c 0,-2.223 0.592,-3.996 1.776,-5.32 1.184,-1.325 2.808,-1.988 4.872,-1.988 1.807,0 3.256,0.514 4.346,1.54 1.09,1.027 1.644,2.394 1.662,4.101 h -3.618 c -0.018,-0.747 -0.25,-1.353 -0.694,-1.82 -0.445,-0.467 -1.032,-0.7 -1.762,-0.7 -0.9,0 -1.578,0.326 -2.036,0.98 -0.458,0.653 -0.688,1.713 -0.688,3.18 v 0.4 c 0,1.485 0.227,2.552 0.681,3.2 0.454,0.65 1.144,0.974 2.07,0.974 z M 173.42,13.21 v 3.547 h 2.47 v 2.827 h -2.47 v 7.201 c 0,0.533 0.103,0.916 0.307,1.147 0.205,0.23 0.597,0.346 1.175,0.346 a 6.16,6.16 0 0 0 1.135,-0.093 v 2.92 a 7.95,7.95 0 0 1 -2.336,0.347 c -2.706,0 -4.085,-1.364 -4.139,-4.094 v -7.774 h -2.109 v -2.827 h 2.11 V 13.21 Z m 3.212,10.628 c 0,-1.431 0.276,-2.707 0.828,-3.827 0.551,-1.12 1.346,-1.987 2.383,-2.6 1.036,-0.614 2.24,-0.92 3.61,-0.92 1.95,0 3.54,0.595 4.773,1.786 1.233,1.192 1.92,2.81 2.063,4.854 l 0.026,0.987 c 0,2.214 -0.618,3.99 -1.855,5.327 -1.237,1.338 -2.897,2.007 -4.98,2.007 -2.082,0 -3.744,-0.667 -4.986,-2 -1.241,-1.334 -1.862,-3.147 -1.862,-5.44 z m 3.858,0.28 c 0,1.369 0.258,2.416 0.774,3.14 0.516,0.725 1.255,1.087 2.216,1.087 0.935,0 1.665,-0.358 2.19,-1.073 0.525,-0.716 0.787,-1.86 0.787,-3.434 0,-1.342 -0.262,-2.383 -0.787,-3.12 -0.525,-0.738 -1.264,-1.107 -2.216,-1.107 -0.944,0 -1.674,0.366 -2.19,1.1 -0.516,0.733 -0.774,1.869 -0.774,3.407 z m 20.314,-3.747 a 10.493,10.493 0 0 0 -1.388,-0.107 c -1.46,0 -2.417,0.494 -2.87,1.48 v 9.441 h -3.859 V 16.756 h 3.645 l 0.107,1.72 c 0.774,-1.324 1.846,-1.987 3.217,-1.987 0.427,0 0.828,0.058 1.201,0.174 l -0.053,3.707 z" />
    <path
       style="fill:#de6c2d"
       id="path4"
       d="m 43.744,21.848 c 0,12.066 -9.792,21.848 -21.872,21.848 C 9.792,43.696 0,33.914 0,21.848 0,9.782 9.793,0 21.872,0 33.952,0 43.744,9.782 43.744,21.848" />
    <path
       style="fill:#ffffff"
       id="path6"
       d="m 36.603,22.595 v -1.393 h 2.908 A 18.238,18.238 0 0 0 36.239,11.429 C 38.381,8.696 43.906,0.967 43.396,0.083 42.953,-0.684 35.054,4.037 31.706,6.89 A 17.451,17.451 0 0 0 22.25,3.794 V 6.571 H 20.883 V 3.807 C 11.699,4.259 4.349,11.816 4,21.202 h 2.53 v 1.393 H 4 c 0.349,9.386 7.7,16.943 16.883,17.395 V 37.226 H 22.25 V 40 c 9.357,-0.262 16.904,-7.892 17.258,-17.405 z" />
    <path
       style="fill:#384158"
       id="path8"
       d="M 20.735,20.632 14.258,15.496 12,17.752 22.203,29.152 C 26.77,20.525 34.775,9.974 41.086,3 37.412,4.73 26.177,14.607 20.735,20.632" />
  </g>
</svg>
